<svg xmlns="http://www.w3.org/2000/svg" x="0px" y="0px" viewBox="16.551000595092773 16.118999481201172 30.898000717163086 31.762001037597656" enable-background="new 0 0 64 64">
<g>
	
		<path fill="#FFFFFF" stroke="#000000" stroke-width="1" stroke-linecap="round" stroke-linejoin="round" stroke-miterlimit="10" d="   M17.051,41.255V21.264c0-2.566,2.08-4.645,4.645-4.645h15.918c2.566,0,4.645,2.08,4.645,4.645v19.991   c0,2.566-2.08,4.645-4.645,4.645H21.697C19.131,45.9,17.051,43.821,17.051,41.255z"/>
</g>
<g>
	
		<line fill="none" stroke="#000000" stroke-width="1" stroke-linecap="round" stroke-linejoin="round" stroke-miterlimit="10" x1="24.94" y1="39.92" x2="33.752" y2="39.92"/>
</g>
<g>
	<path fill="none" stroke="#536DFE" stroke-width="1" stroke-linecap="round" stroke-linejoin="round" stroke-miterlimit="10" d="   M34.715,33.786L34.715,33.786c0,0.858-0.714,1.554-1.595,1.554h-6.907c-0.881,0-1.595-0.696-1.595-1.554v0   c0-2.247,1.869-4.069,4.175-4.069h1.747C32.846,29.717,34.715,31.539,34.715,33.786z"/>
	
		<circle fill="none" stroke="#536DFE" stroke-width="1" stroke-linecap="round" stroke-linejoin="round" stroke-miterlimit="10" cx="29.667" cy="24.17" r="2.812"/>
</g>
<g>
	
		<circle fill="#FFFFFF" stroke="#536DFE" stroke-width="1" stroke-linecap="round" stroke-linejoin="round" stroke-miterlimit="10" cx="40.832" cy="41.264" r="6.117"/>
	<g>
		
			<line fill="none" stroke="#536DFE" stroke-width="1" stroke-linecap="round" stroke-linejoin="round" stroke-miterlimit="10" x1="38.624" y1="41.264" x2="43.039" y2="41.264"/>
		
			<line fill="none" stroke="#536DFE" stroke-width="1" stroke-linecap="round" stroke-linejoin="round" stroke-miterlimit="10" x1="40.832" y1="39.057" x2="40.832" y2="43.472"/>
	</g>
</g>
</svg>